<svg id="visual" viewBox="0 0 900 600" width="900" height="600" xmlns="http://www.w3.org/2000/svg" xmlns:xlink="http://www.w3.org/1999/xlink" version="1.1"><rect x="0" y="0" width="900" height="600" fill="#addbff"></rect><path d="M0 280L16.7 286.2C33.3 292.3 66.7 304.7 100 312C133.3 319.3 166.7 321.7 200 320.5C233.3 319.3 266.7 314.7 300 313.3C333.3 312 366.7 314 400 312.8C433.3 311.7 466.7 307.3 500 300C533.3 292.7 566.7 282.3 600 282.7C633.3 283 666.7 294 700 294.3C733.3 294.7 766.7 284.3 800 284.3C833.3 284.3 866.7 294.7 883.3 299.8L900 305L900 601L883.3 601C866.7 601 833.3 601 800 601C766.7 601 733.3 601 700 601C666.7 601 633.3 601 600 601C566.7 601 533.3 601 500 601C466.7 601 433.3 601 400 601C366.7 601 333.3 601 300 601C266.7 601 233.3 601 200 601C166.7 601 133.3 601 100 601C66.7 601 33.3 601 16.7 601L0 601Z" fill="#05cda2"></path><path d="M0 340L16.7 341.8C33.3 343.7 66.7 347.3 100 348.8C133.3 350.3 166.7 349.7 200 349.2C233.3 348.7 266.7 348.3 300 352.5C333.3 356.7 366.7 365.3 400 363.7C433.3 362 466.7 350 500 347.2C533.3 344.3 566.7 350.7 600 357.5C633.3 364.3 666.7 371.7 700 372.3C733.3 373 766.7 367 800 365.3C833.3 363.7 866.7 366.3 883.3 367.7L900 369L900 601L883.3 601C866.7 601 833.3 601 800 601C766.7 601 733.3 601 700 601C666.7 601 633.3 601 600 601C566.7 601 533.3 601 500 601C466.7 601 433.3 601 400 601C366.7 601 333.3 601 300 601C266.7 601 233.3 601 200 601C166.7 601 133.3 601 100 601C66.7 601 33.3 601 16.7 601L0 601Z" fill="#00bbea"></path><path d="M0 434L16.7 429.8C33.3 425.7 66.7 417.3 100 414.2C133.3 411 166.7 413 200 416.8C233.3 420.7 266.7 426.3 300 426.5C333.3 426.7 366.7 421.3 400 417.2C433.3 413 466.7 410 500 411.5C533.3 413 566.7 419 600 420.3C633.3 421.7 666.7 418.3 700 418.3C733.3 418.3 766.7 421.7 800 422.8C833.3 424 866.7 423 883.3 422.5L900 422L900 601L883.3 601C866.7 601 833.3 601 800 601C766.7 601 733.3 601 700 601C666.7 601 633.3 601 600 601C566.7 601 533.3 601 500 601C466.7 601 433.3 601 400 601C366.7 601 333.3 601 300 601C266.7 601 233.3 601 200 601C166.7 601 133.3 601 100 601C66.7 601 33.3 601 16.7 601L0 601Z" fill="#0098fe"></path><path d="M0 470L16.7 472.8C33.3 475.7 66.7 481.3 100 482C133.3 482.7 166.7 478.3 200 475.8C233.3 473.3 266.7 472.7 300 472.3C333.3 472 366.7 472 400 472.2C433.3 472.3 466.7 472.7 500 475.7C533.3 478.7 566.7 484.3 600 483.8C633.3 483.3 666.7 476.7 700 474.8C733.3 473 766.7 476 800 476.5C833.3 477 866.7 475 883.3 474L900 473L900 601L883.3 601C866.7 601 833.3 601 800 601C766.7 601 733.3 601 700 601C666.7 601 633.3 601 600 601C566.7 601 533.3 601 500 601C466.7 601 433.3 601 400 601C366.7 601 333.3 601 300 601C266.7 601 233.3 601 200 601C166.7 601 133.3 601 100 601C66.7 601 33.3 601 16.7 601L0 601Z" fill="#0066ff"></path></svg>