<?xml version="1.0" encoding="UTF-8" standalone="no" ?>
<!DOCTYPE svg PUBLIC "-//W3C//DTD SVG 1.1//EN" "http://www.w3.org/Graphics/SVG/1.1/DTD/svg11.dtd">
<svg xmlns="http://www.w3.org/2000/svg" xmlns:xlink="http://www.w3.org/1999/xlink" version="1.1" width="976" height="976" viewBox="0 0 976 976" xml:space="preserve">
<desc>Created with Fabric.js 5.3.0</desc>
<defs>
</defs>
<g transform="matrix(10.8589740733 0 0 10.8589740733 488.0000080215 488.0000080215)" id="uKh5He4ug-0t4lzWhELBK"  >
<path style="stroke: rgb(57,152,202); stroke-width: 0; stroke-dasharray: none; stroke-linecap: butt; stroke-dashoffset: 0; stroke-linejoin: miter; stroke-miterlimit: 4; fill: rgb(255,255,255); fill-rule: nonzero; opacity: 1;"  transform=" translate(0, 0)" d="M -44.93979 -44.93979 L 44.93979 -44.93979 L 44.93979 44.93979 L -44.93979 44.93979 z" stroke-linecap="round" />
</g>
<g transform="matrix(1 0 0 1 488.1937419159 479.7926129699)" id="TF2EcPOHNFjSIMUW6rsPN"  >
<g style=""   >
		<g transform="matrix(0 2.6087211391 -2.6087211391 0 0 11.4910600483)" id="57gok7HIOB7LIAwoTuMsR"  >
<path style="stroke: rgb(252,244,245); stroke-width: 0; stroke-dasharray: none; stroke-linecap: butt; stroke-dashoffset: 0; stroke-linejoin: miter; stroke-miterlimit: 4; fill: rgb(0,0,0); fill-rule: nonzero; opacity: 1;"  transform=" translate(-161.9171418692, -140.2243622737)" d="M 242.87431 0 L 323.83428000000004 140.22436 L 242.87431000000004 280.44872 L 80.95997000000003 280.44872 L 2.842170943040401e-14 140.22436 L 80.95997000000003 0 z" stroke-linecap="round" />
</g>
		<g transform="matrix(3.4257602192 0 0 13.0324966664 -152.306252228 -87.1171982901)" id="PjQMqnOVbNWSA9Bh6lOOk"  >
<path style="stroke: rgb(124,210,57); stroke-width: 0; stroke-dasharray: none; stroke-linecap: butt; stroke-dashoffset: 0; stroke-linejoin: miter; stroke-miterlimit: 4; fill: rgb(255,255,255); fill-rule: nonzero; opacity: 1;"  transform=" translate(0, 0)" d="M -26.7094 -26.7094 L 26.7094 -26.7094 L 26.7094 26.7094 L -26.7094 26.7094 z" stroke-linecap="round" />
</g>
		<g transform="matrix(6.5916123367 3.805669157 -1.1688935828 2.0245830741 -140.5477939409 282.9159996535)" id="If1Benb1guvuPPJQz38EP"  >
<path style="stroke: rgb(132,144,52); stroke-width: 0; stroke-dasharray: none; stroke-linecap: butt; stroke-dashoffset: 0; stroke-linejoin: miter; stroke-miterlimit: 4; fill: rgb(0,0,0); fill-rule: nonzero; opacity: 1;"  transform=" translate(0, 0)" d="M -26.09305 -26.17322 L 26.00276 -26.17322 L 26.093049999999998 26.173229999999997 L -26.093050000000005 25.922589999999996 z" stroke-linecap="round" />
</g>
		<g transform="matrix(3.42576 0 0 13.001083499 152.693741916 -87.9562251979)" id="Td0sLh7yLxAHa-Dasstoo"  >
<path style="stroke: rgb(124,210,57); stroke-width: 0; stroke-dasharray: none; stroke-linecap: butt; stroke-dashoffset: 0; stroke-linejoin: miter; stroke-miterlimit: 4; fill: rgb(255,255,255); fill-rule: nonzero; opacity: 1;"  transform=" translate(0, 0)" d="M -26.7094 -26.7094 L 26.7094 -26.7094 L 26.7094 26.7094 L -26.7094 26.7094 z" stroke-linecap="round" />
</g>
		<g transform="matrix(0 1.8024659124 -1.8024659124 0 1.4688823903 12.709963876)" id="TV52KtHEwt7vcDSRZLvNH"  >
<path style="stroke: rgb(193,118,192); stroke-width: 0; stroke-dasharray: none; stroke-linecap: butt; stroke-dashoffset: 0; stroke-linejoin: miter; stroke-miterlimit: 4; fill: rgb(255,255,255); fill-rule: nonzero; opacity: 1;"  transform=" translate(-157.3770528511, -136.2925216068)" d="M 236.06556 0 L 314.75411 136.29252 L 236.06556 272.58504 L 78.68854999999999 272.58504 L -1.4210854715202004e-14 136.29252 L 78.68854999999999 0 z" stroke-linecap="round" />
</g>
		<g transform="matrix(3.9339580789 2.2712717558 -1.1688935828 2.0245830741 230.7288379791 -206.9625696795)" id="uw--0mK8BqWLbmSYxweSq"  >
<path style="stroke: rgb(132,144,52); stroke-width: 0; stroke-dasharray: none; stroke-linecap: butt; stroke-dashoffset: 0; stroke-linejoin: miter; stroke-miterlimit: 4; fill: rgb(0,0,0); fill-rule: nonzero; opacity: 1;"  transform=" translate(0, 0)" d="M -26.09305 -26.17322 L 26.00276 -26.17322 L 26.093049999999998 26.173229999999997 L -26.093050000000005 25.922589999999996 z" stroke-linecap="round" />
</g>
		<g transform="matrix(6.9999875629 -4.0414447038 1.1688935829 2.0245830741 152.4796581704 275.3570614771)" id="t4B5-OYLmm95NJN8kJLC3"  >
<path style="stroke: rgb(132,144,52); stroke-width: 0; stroke-dasharray: none; stroke-linecap: butt; stroke-dashoffset: 0; stroke-linejoin: miter; stroke-miterlimit: 4; fill: rgb(0,0,0); fill-rule: nonzero; opacity: 1;"  transform=" translate(0, 0)" d="M -26.09305 -26.17322 L 26.00276 -26.17322 L 26.093049999999998 26.173229999999997 L -26.093050000000005 25.922589999999996 z" stroke-linecap="round" />
</g>
		<g transform="matrix(3.921698108 -2.2641934583 1.1688935829 2.0245830741 -230.4852603247 -207.3742001205)" id="CCJxX2iQv54ZQGpZsVIW7"  >
<path style="stroke: rgb(132,144,52); stroke-width: 0; stroke-dasharray: none; stroke-linecap: butt; stroke-dashoffset: 0; stroke-linejoin: miter; stroke-miterlimit: 4; fill: rgb(0,0,0); fill-rule: nonzero; opacity: 1;"  transform=" translate(0, 0)" d="M -26.09305 -26.17322 L 26.00276 -26.17322 L 26.093049999999998 26.173229999999997 L -26.093050000000005 25.922589999999996 z" stroke-linecap="round" />
</g>
		<g transform="matrix(1.096974856 0 0 2.428602818 -121.8062570506 -235.0171882167)" id="KA6Tn_0ZaXqr5zd46RT7T"  >
<path style="stroke: rgb(158,2,182); stroke-width: 0; stroke-dasharray: none; stroke-linecap: butt; stroke-dashoffset: 0; stroke-linejoin: miter; stroke-miterlimit: 4; fill: rgb(255,255,255); fill-rule: nonzero; opacity: 1;"  transform=" translate(0, 0)" d="M -55.60747 -55.60747 L 55.60748 -55.60747 L 55.60748 55.60748 L -55.60747 55.60748 z" stroke-linecap="round" />
</g>
		<g transform="matrix(1.096974856 0 0 2.428602818 122.1937437966 -239.1589165432)" id="UdXVWmRLgw_Faqgl1duJy"  >
<path style="stroke: rgb(158,2,182); stroke-width: 0; stroke-dasharray: none; stroke-linecap: butt; stroke-dashoffset: 0; stroke-linejoin: miter; stroke-miterlimit: 4; fill: rgb(255,255,255); fill-rule: nonzero; opacity: 1;"  transform=" translate(-0.000005, -0.000005)" d="M -55.60747 -55.60747 L 55.60748 -55.60747 L 55.60748 55.60748 L -55.60747 55.60748 z" stroke-linecap="round" />
</g>
		<g transform="matrix(1.0944118153 0 0 5.6177611862 -0.1937419159 6.9916539618)" id="ZrqS-aYL9inpRZPMTzyN5"  >
<path style="stroke: rgb(9,143,253); stroke-width: 0; stroke-dasharray: none; stroke-linecap: butt; stroke-dashoffset: 0; stroke-linejoin: miter; stroke-miterlimit: 4; fill: rgb(0,0,0); fill-rule: nonzero; opacity: 1;"  transform=" translate(0, 0)" d="M -55.7377 -55.7377 L 55.73771 -55.7377 L 55.73771 55.73771 L -55.7377 55.73771 z" stroke-linecap="round" />
</g>
</g>
</g>
</svg>