<svg id="visual" viewBox="0 0 900 450" width="900" height="450" xmlns="http://www.w3.org/2000/svg" xmlns:xlink="http://www.w3.org/1999/xlink" version="1.1"><rect x="0" y="0" width="900" height="450" fill="#addbff"></rect><path d="M0 297L12.5 294.3C25 291.7 50 286.3 75 286C100 285.7 125 290.3 150 289.2C175 288 200 281 225 278.7C250 276.3 275 278.7 300 282.5C325 286.3 350 291.7 375 290C400 288.3 425 279.7 450 278.8C475 278 500 285 525 286.3C550 287.7 575 283.3 600 284C625 284.7 650 290.3 675 292.5C700 294.7 725 293.3 750 289.5C775 285.7 800 279.3 825 278.3C850 277.3 875 281.7 887.5 283.8L900 286L900 451L887.5 451C875 451 850 451 825 451C800 451 775 451 750 451C725 451 700 451 675 451C650 451 625 451 600 451C575 451 550 451 525 451C500 451 475 451 450 451C425 451 400 451 375 451C350 451 325 451 300 451C275 451 250 451 225 451C200 451 175 451 150 451C125 451 100 451 75 451C50 451 25 451 12.5 451L0 451Z" fill="#05cda2"></path><path d="M0 331L12.5 328C25 325 50 319 75 319.3C100 319.7 125 326.3 150 327C175 327.7 200 322.3 225 319.3C250 316.3 275 315.7 300 318.5C325 321.3 350 327.7 375 328.8C400 330 425 326 450 324C475 322 500 322 525 321.7C550 321.3 575 320.7 600 323.3C625 326 650 332 675 331.2C700 330.3 725 322.7 750 319C775 315.3 800 315.7 825 317.5C850 319.3 875 322.7 887.5 324.3L900 326L900 451L887.5 451C875 451 850 451 825 451C800 451 775 451 750 451C725 451 700 451 675 451C650 451 625 451 600 451C575 451 550 451 525 451C500 451 475 451 450 451C425 451 400 451 375 451C350 451 325 451 300 451C275 451 250 451 225 451C200 451 175 451 150 451C125 451 100 451 75 451C50 451 25 451 12.5 451L0 451Z" fill="#00bbea"></path><path d="M0 353L12.5 354C25 355 50 357 75 358.2C100 359.3 125 359.7 150 361.2C175 362.7 200 365.3 225 364.8C250 364.3 275 360.7 300 358.7C325 356.7 350 356.3 375 356C400 355.7 425 355.3 450 358C475 360.7 500 366.3 525 370.2C550 374 575 376 600 373C625 370 650 362 675 358.8C700 355.7 725 357.3 750 360.2C775 363 800 367 825 369.7C850 372.3 875 373.7 887.5 374.3L900 375L900 451L887.5 451C875 451 850 451 825 451C800 451 775 451 750 451C725 451 700 451 675 451C650 451 625 451 600 451C575 451 550 451 525 451C500 451 475 451 450 451C425 451 400 451 375 451C350 451 325 451 300 451C275 451 250 451 225 451C200 451 175 451 150 451C125 451 100 451 75 451C50 451 25 451 12.5 451L0 451Z" fill="#0098fe"></path><path d="M0 396L12.5 397C25 398 50 400 75 401C100 402 125 402 150 404.2C175 406.3 200 410.7 225 412C250 413.3 275 411.7 300 411.7C325 411.7 350 413.3 375 413.5C400 413.7 425 412.3 450 412.3C475 412.3 500 413.7 525 414.7C550 415.7 575 416.3 600 413.5C625 410.7 650 404.3 675 402C700 399.7 725 401.3 750 403.3C775 405.3 800 407.7 825 409.3C850 411 875 412 887.5 412.5L900 413L900 451L887.5 451C875 451 850 451 825 451C800 451 775 451 750 451C725 451 700 451 675 451C650 451 625 451 600 451C575 451 550 451 525 451C500 451 475 451 450 451C425 451 400 451 375 451C350 451 325 451 300 451C275 451 250 451 225 451C200 451 175 451 150 451C125 451 100 451 75 451C50 451 25 451 12.5 451L0 451Z" fill="#0066ff"></path></svg>